<svg xmlns="http://www.w3.org/2000/svg" viewBox="0 0 1200 675" fill="none">
  <defs>
    <linearGradient id="bg" x1="0" y1="0" x2="1200" y2="675" gradientUnits="userSpaceOnUse">
      <stop stop-color="#F7F7FB"/>
      <stop offset="1" stop-color="#EDEDF7"/>
    </linearGradient>
    <filter id="shadow" x="-20%" y="-20%" width="140%" height="140%">
      <feDropShadow dx="0" dy="18" stdDeviation="22" flood-color="#000000" flood-opacity="0.14"/>
    </filter>
  </defs>
  <rect width="1200" height="675" rx="32" fill="url(#bg)"/>
  <g opacity="0.45" stroke="#D8D8E8" stroke-width="2">
    <path d="M0 112H1200"/>
    <path d="M0 224H1200"/>
    <path d="M0 336H1200"/>
    <path d="M0 448H1200"/>
    <path d="M0 560H1200"/>
    <path d="M120 0V675"/>
    <path d="M264 0V675"/>
    <path d="M408 0V675"/>
    <path d="M552 0V675"/>
    <path d="M696 0V675"/>
    <path d="M840 0V675"/>
    <path d="M984 0V675"/>
    <path d="M1128 0V675"/>
  </g>
  <g filter="url(#shadow)">
    <rect x="126" y="186" width="150" height="304" rx="30" fill="white"/>
    <rect x="126" y="186" width="150" height="304" rx="30" stroke="#E5E5EF"/>
    <text x="201" y="344" text-anchor="middle" fill="#111827" font-family="Inter, Arial, sans-serif" font-size="82" font-weight="700">/</text>
  </g>
  <g filter="url(#shadow)">
    <rect x="468" y="102" width="250" height="108" rx="28" fill="white"/>
    <rect x="468" y="102" width="250" height="108" rx="28" stroke="#E5E5EF"/>
    <text x="593" y="170" text-anchor="middle" fill="#4B5563" font-family="Inter, Arial, sans-serif" font-size="56" font-weight="700">/home</text>
  </g>
  <g filter="url(#shadow)">
    <rect x="468" y="242" width="250" height="108" rx="28" fill="white"/>
    <rect x="468" y="242" width="250" height="108" rx="28" stroke="#E5E5EF"/>
    <text x="593" y="310" text-anchor="middle" fill="#4B5563" font-family="Inter, Arial, sans-serif" font-size="56" font-weight="700">/dashboard</text>
  </g>
  <g filter="url(#shadow)">
    <rect x="468" y="382" width="250" height="108" rx="28" fill="white"/>
    <rect x="468" y="382" width="250" height="108" rx="28" stroke="#E5E5EF"/>
    <text x="593" y="450" text-anchor="middle" fill="#4B5563" font-family="Inter, Arial, sans-serif" font-size="56" font-weight="700">/settings</text>
  </g>
  <path d="M276 262C360 262 356 156 430 156H468" stroke="#C7C7D8" stroke-width="12" stroke-linecap="round"/>
  <path d="M276 338C362 338 350 296 430 296H468" stroke="#C7C7D8" stroke-width="12" stroke-linecap="round"/>
  <path d="M276 414C362 414 350 436 430 436H468" stroke="#C7C7D8" stroke-width="12" stroke-linecap="round"/>
  <circle cx="412" cy="156" r="11" fill="#8B5CF6"/>
  <circle cx="410" cy="296" r="11" fill="#8B5CF6"/>
  <circle cx="410" cy="436" r="11" fill="#8B5CF6"/>
  <text x="72" y="604" fill="#111827" font-family="Inter, Arial, sans-serif" font-size="52" font-weight="800">Route-based code splitting</text>
</svg>
