<svg xmlns="http://www.w3.org/2000/svg" viewBox="0 0 1200 675" fill="none">
  <defs>
    <linearGradient id="bg" x1="0" y1="0" x2="1200" y2="675" gradientUnits="userSpaceOnUse">
      <stop stop-color="#FAFAFC"/>
      <stop offset="1" stop-color="#F1F1F8"/>
    </linearGradient>
    <filter id="shadow" x="-20%" y="-20%" width="140%" height="140%">
      <feDropShadow dx="0" dy="16" stdDeviation="20" flood-color="#000000" flood-opacity="0.12"/>
    </filter>
  </defs>
  <rect width="1200" height="675" rx="32" fill="url(#bg)"/>
  <g opacity="0.4" stroke="#D9D9E7" stroke-width="2">
    <path d="M0 112H1200"/>
    <path d="M0 224H1200"/>
    <path d="M0 336H1200"/>
    <path d="M0 448H1200"/>
    <path d="M0 560H1200"/>
    <path d="M120 0V675"/>
    <path d="M264 0V675"/>
    <path d="M408 0V675"/>
    <path d="M552 0V675"/>
    <path d="M696 0V675"/>
    <path d="M840 0V675"/>
    <path d="M984 0V675"/>
    <path d="M1128 0V675"/>
  </g>
  <g filter="url(#shadow)">
    <rect x="126" y="152" width="414" height="116" rx="34" fill="white"/>
    <rect x="126" y="152" width="414" height="116" rx="34" stroke="#E5E5EF"/>
    <text x="333" y="227" text-anchor="middle" fill="#111827" font-family="Inter, Arial, sans-serif" font-size="66" font-weight="700">App shell</text>
  </g>
  <g filter="url(#shadow)">
    <rect x="126" y="310" width="252" height="110" rx="30" fill="white"/>
    <rect x="126" y="310" width="252" height="110" rx="30" stroke="#E5E5EF"/>
    <text x="252" y="381" text-anchor="middle" fill="#4B5563" font-family="Inter, Arial, sans-serif" font-size="56" font-weight="700">Modal</text>
  </g>
  <g filter="url(#shadow)">
    <rect x="388" y="310" width="252" height="110" rx="30" fill="white"/>
    <rect x="388" y="310" width="252" height="110" rx="30" stroke="#E5E5EF"/>
    <text x="514" y="381" text-anchor="middle" fill="#4B5563" font-family="Inter, Arial, sans-serif" font-size="56" font-weight="700">Toast</text>
  </g>
  <path d="M333 268V310" stroke="#C7C7D8" stroke-width="12" stroke-linecap="round"/>
  <path d="M333 268H388" stroke="#C7C7D8" stroke-width="12" stroke-linecap="round"/>
  <path d="M440 268V310" stroke="#C7C7D8" stroke-width="12" stroke-linecap="round"/>
  <circle cx="333" cy="280" r="11" fill="#8B5CF6"/>
  <circle cx="440" cy="280" r="11" fill="#8B5CF6"/>
  <text x="72" y="604" fill="#111827" font-family="Inter, Arial, sans-serif" font-size="52" font-weight="800">Component-based code splitting</text>
</svg>
